<?xml version="1.0" standalone="no"?>
<!DOCTYPE svg PUBLIC "-//W3C//DTD SVG 20010904//EN"
 "http://www.w3.org/TR/2001/REC-SVG-20010904/DTD/svg10.dtd">
<svg version="1.0" xmlns="http://www.w3.org/2000/svg"
 width="148.000000pt" height="150.000000pt" viewBox="0 0 148.000000 150.000000"
 preserveAspectRatio="xMidYMid meet">

<g transform="translate(0.000000,150.000000) scale(0.100000,-0.100000)"
fill="darkblue" stroke="none">
<path d="M643 1491 c-302 -48 -533 -253 -614 -547 -28 -100 -30 -276 -4 -374
70 -271 268 -473 537 -546 99 -28 282 -25 378 5 151 47 276 129 364 240 72 90
99 139 137 251 30 88 33 105 33 225 0 109 -3 142 -23 205 -63 202 -182 356
-354 454 -124 71 -318 108 -454 87z m232 -106 c220 -46 425 -236 489 -454 20
-69 20 -83 0 -79 -11 2 -23 24 -34 63 -57 206 -231 375 -441 430 -48 13 -92
16 -179 13 -99 -4 -126 -9 -195 -36 -155 -61 -280 -184 -344 -338 -72 -171
-65 -339 20 -514 98 -200 322 -339 546 -340 75 0 188 26 262 60 64 30 101 38
101 20 0 -15 -140 -78 -215 -96 -93 -22 -266 -14 -348 15 -102 36 -180 84
-253 156 -126 125 -194 285 -194 459 1 259 133 472 365 587 133 66 275 84 420
54z m-166 -464 c8 -5 11 -16 8 -25 -5 -13 -25 -16 -122 -16 l-115 0 0 -70 0
-70 84 0 c86 0 108 -9 86 -35 -9 -11 -34 -15 -91 -15 l-79 0 0 -65 0 -64 118
-3 c109 -3 117 -4 117 -23 0 -19 -7 -20 -145 -20 l-145 0 -3 199 c-2 153 1
201 10 208 18 11 259 10 277 -1z m284 -2 c39 -20 67 -52 67 -76 0 -32 -22 -29
-58 7 -25 24 -39 30 -74 30 -55 0 -88 -22 -88 -59 0 -37 26 -59 86 -70 107
-21 144 -53 144 -128 0 -88 -95 -141 -200 -113 -44 12 -100 60 -100 86 0 27
30 27 58 2 54 -51 99 -60 152 -33 72 37 33 134 -53 135 -34 1 -102 35 -121 61
-9 13 -16 42 -16 64 0 45 23 75 70 94 34 13 107 13 133 0z m339 -241 c24 -20
28 -44 12 -67 -17 -23 -53 -28 -72 -9 -18 18 -15 65 6 77 23 14 35 13 54 -1z
m-88 -234 c30 -29 9 -84 -31 -84 -21 0 -53 29 -53 48 0 22 30 52 51 52 10 0
25 -7 33 -16z"/>
</g>
</svg>
